<svg width="1376" height="26" viewBox="0 0 1376 26" fill="none" xmlns="http://www.w3.org/2000/svg">
<circle r="13" transform="matrix(1 0 0 -1 13 13)" fill="#FFB877"/>
<circle r="8.5" transform="matrix(1 0 0 -1 79.5 13.5)" fill="#FFB877"/>
<circle r="5.5" transform="matrix(1 0 0 -1 138.5 13.5)" fill="#FFB877"/>
<circle r="5.5" transform="matrix(1 0 0 -1 754.5 13.5)" fill="#FFB877"/>
<circle r="5.5" transform="matrix(1 0 0 -1 362.5 13.5)" fill="#FFB877"/>
<circle r="5.5" transform="matrix(1 0 0 -1 978.5 13.5)" fill="#FFB877"/>
<circle r="5.5" transform="matrix(1 0 0 -1 1258.5 13.5)" fill="#FFB877"/>
<circle r="5.5" transform="matrix(1 0 0 -1 250.5 13.5)" fill="#FFB877"/>
<circle r="5.5" transform="matrix(1 0 0 -1 418.5 13.5)" fill="#FFB877"/>
<circle r="5.5" transform="matrix(1 0 0 -1 866.5 13.5)" fill="#FFB877"/>
<circle r="5.5" transform="matrix(1 0 0 -1 642.5 13.5)" fill="#FFB877"/>
<circle r="5.5" transform="matrix(1 0 0 -1 1090.5 13.5)" fill="#FFB877"/>
<circle r="5.5" transform="matrix(1 0 0 -1 194.5 13.5)" fill="#FFB877"/>
<circle r="5.5" transform="matrix(1 0 0 -1 810.5 13.5)" fill="#FFB877"/>
<circle r="5.5" transform="matrix(1 0 0 -1 586.5 13.5)" fill="#FFB877"/>
<circle r="5.5" transform="matrix(1 0 0 -1 530.5 13.5)" fill="#FFB877"/>
<circle r="5.5" transform="matrix(1 0 0 -1 1034.5 13.5)" fill="#FFB877"/>
<circle r="5.5" transform="matrix(1 0 0 -1 306.5 13.5)" fill="#FFB877"/>
<circle r="5.5" transform="matrix(1 0 0 -1 474.5 13.5)" fill="#FFB877"/>
<circle r="5.5" transform="matrix(1 0 0 -1 922.5 13.5)" fill="#FFB877"/>
<circle r="5.5" transform="matrix(1 0 0 -1 1202.5 13.5)" fill="#FFB877"/>
<circle r="5.5" transform="matrix(1 0 0 -1 698.5 13.5)" fill="#FFB877"/>
<circle r="5.5" transform="matrix(1 0 0 -1 1146.5 13.5)" fill="#FFB877"/>
<circle r="5.5" transform="matrix(1 0 0 -1 1314.5 13.5)" fill="#FFB877"/>
<circle r="5.5" transform="matrix(1 0 0 -1 1370.5 13.5)" fill="#FFB877"/>
</svg>
