<svg width="1295" height="26" viewBox="0 0 1295 26" fill="none" xmlns="http://www.w3.org/2000/svg">
<circle r="13" transform="matrix(1 1.74846e-07 1.74846e-07 -1 13 13)" fill="white"/>
<circle r="8.5" transform="matrix(1 1.74846e-07 1.74846e-07 -1 79.5 13.5)" fill="white"/>
<circle r="5.5" transform="matrix(1 1.74846e-07 1.74846e-07 -1 138.5 13.5)" fill="white"/>
<circle r="5.5" transform="matrix(1 1.74846e-07 1.74846e-07 -1 754.5 13.5002)" fill="white"/>
<circle r="5.5" transform="matrix(1 1.74846e-07 1.74846e-07 -1 362.5 13.5)" fill="white"/>
<circle r="5.5" transform="matrix(1 1.74846e-07 1.74846e-07 -1 978.5 13.5002)" fill="white"/>
<circle r="5.5" transform="matrix(1 1.74846e-07 1.74846e-07 -1 1258.5 13.5002)" fill="white"/>
<circle r="5.5" transform="matrix(1 1.74846e-07 1.74846e-07 -1 250.5 13.5)" fill="white"/>
<circle r="5.5" transform="matrix(1 1.74846e-07 1.74846e-07 -1 418.5 13.5)" fill="white"/>
<circle r="5.5" transform="matrix(1 1.74846e-07 1.74846e-07 -1 866.5 13.5002)" fill="white"/>
<circle r="5.5" transform="matrix(1 1.74846e-07 1.74846e-07 -1 642.5 13.5)" fill="white"/>
<circle r="5.5" transform="matrix(1 1.74846e-07 1.74846e-07 -1 1090.5 13.5002)" fill="white"/>
<circle r="5.5" transform="matrix(1 1.74846e-07 1.74846e-07 -1 194.5 13.5)" fill="white"/>
<circle r="5.5" transform="matrix(1 1.74846e-07 1.74846e-07 -1 810.5 13.5002)" fill="white"/>
<circle r="5.5" transform="matrix(1 1.74846e-07 1.74846e-07 -1 586.5 13.5)" fill="white"/>
<circle r="5.5" transform="matrix(1 1.74846e-07 1.74846e-07 -1 530.5 13.5)" fill="white"/>
<circle r="5.5" transform="matrix(1 1.74846e-07 1.74846e-07 -1 1034.5 13.5002)" fill="white"/>
<circle r="5.5" transform="matrix(1 1.74846e-07 1.74846e-07 -1 306.5 13.5)" fill="white"/>
<circle r="5.5" transform="matrix(1 1.74846e-07 1.74846e-07 -1 474.5 13.5)" fill="white"/>
<circle r="5.5" transform="matrix(1 1.74846e-07 1.74846e-07 -1 922.5 13.5002)" fill="white"/>
<circle r="5.5" transform="matrix(1 1.74846e-07 1.74846e-07 -1 1202.5 13.5002)" fill="white"/>
<circle r="5.5" transform="matrix(1 1.74846e-07 1.74846e-07 -1 698.5 13.5)" fill="white"/>
<circle r="5.5" transform="matrix(1 1.74846e-07 1.74846e-07 -1 1146.5 13.5002)" fill="white"/>
</svg>
