<svg width="2480" height="477" viewBox="0 0 2480 477" fill="none" xmlns="http://www.w3.org/2000/svg">
<g opacity="0.25">
<path d="M2251.83 328.769L2249.82 326.753L2213.52 274.311L2148.99 181.529C2146.97 179.512 2144.96 177.495 2142.94 173.461L2013.88 64.5437L2011.86 62.5268L1945.32 16.136C1943.3 14.119 1941.28 14.119 1939.27 12.102L1921.12 4.03402C1902.97 -2.01696 1886.84 3.41316e-05 1874.74 6.051L1818.27 42.3568C1818.27 42.3568 1816.26 42.3568 1816.26 44.3738L1806.17 50.4248C1802.14 54.4588 1773.91 60.5097 1769.88 64.5437L1652.92 139.172C1640.82 145.223 1612.59 151.274 1592.42 153.291C1582.34 153.291 1574.27 157.325 1566.2 161.359C1533.94 177.495 1449.24 219.852 1441.18 221.869C1437.14 221.869 1429.08 221.869 1421.01 221.869C1380.68 221.869 1346.4 223.886 1312.12 242.039C1263.72 268.26 1203.22 274.311 1148.78 288.43C1136.68 290.447 1124.58 294.481 1112.48 298.515C1080.21 312.634 1045.93 326.752 1017.7 346.922C995.519 363.058 975.354 379.194 953.172 393.313C928.973 411.466 902.758 429.619 878.559 447.772C872.509 451.806 852.344 471.976 844.278 471.976L2378.88 471.976L2251.83 328.769Z" fill="url(#paint0_linear)"/>
<path opacity="0.3" d="M1923.13 221.869L1882.8 310.617L1804.16 304.566L1697.28 361.041L1602.5 367.092L1483.52 405.415L1414.96 395.33L1201.21 473.993L2380.89 473.993L2366.78 457.857L2261.91 357.007L2151 284.396L2110.67 242.039L2017.91 197.665L1923.13 221.869Z" fill="#FCFCFC"/>
<path opacity="0.3" d="M1437.14 476.01L1604.52 391.297L1646.86 393.314L1695.26 381.212L1725.51 409.449L1856.58 367.093L1923.13 393.314L1979.59 433.653L2054.21 306.583L2106.64 336.838L2227.63 373.144L2380.89 473.993L1437.14 476.01Z" fill="#FCFCFC"/>
<path opacity="0.3" d="M2227.63 373.144L2106.64 336.838L2054.21 306.583L2084.46 473.994L2380.89 473.994L2227.63 373.144Z" fill="white"/>
<path opacity="0.3" d="M1979.59 433.652L1923.13 393.312L1856.58 365.074L1729.54 409.448C1723.49 423.567 1717.44 437.686 1709.37 453.822C1705.34 461.89 1703.32 467.941 1699.29 476.009L1997.74 476.009L1979.59 433.652Z" fill="#FCFCFC"/>
<path opacity="0.3" d="M1646.86 393.313L1604.52 391.296L1437.14 476.01L1564.18 476.01L1646.86 393.313Z" fill="#FCFCFC"/>
<path opacity="0.3" d="M1362.53 284.395L1201.21 473.992L846.294 473.992L890.659 441.72L1239.52 324.735L1308.09 314.65L1362.53 284.395Z" fill="white"/>
<path opacity="0.3" d="M1747.69 225.903L1665.01 183.546L1586.37 225.903L1495.62 264.226L1431.09 318.684L1414.96 395.33L1483.52 405.415L1602.5 367.092L1697.28 361.041L1804.15 304.566L1747.69 225.903Z" fill="white"/>
<path opacity="0.3" d="M2251.84 328.77L2249.82 326.753L2213.52 274.311L2148.99 181.529L2171.18 213.801C2124.79 165.393 2013.88 84.7137 2013.88 84.7137L1975.57 88.7477L1921.12 56.4758L1868.69 169.427L1923.14 221.869L2015.9 197.665L2108.66 242.039L2148.99 282.379L2259.9 354.99L2364.76 455.84L2378.88 471.976L2251.84 328.77Z" fill="white"/>
<path opacity="0.4" d="M2163.11 203.716L2169.16 213.801C2122.78 165.393 2011.87 84.7137 2011.87 84.7137L1975.57 88.7477L1921.13 56.4758L1868.7 169.427L1792.07 155.308L1747.7 225.903L1665.02 183.546L1586.38 225.903L1495.63 264.226L1429.09 318.685L1362.54 284.396L1306.08 314.651L1239.53 322.719C1239.53 322.719 892.684 441.721 890.667 441.721L955.197 395.33C977.379 379.194 999.561 365.075 1019.73 348.939C1047.96 328.769 1082.24 314.651 1114.5 300.532C1126.6 296.498 1138.7 292.464 1150.8 290.447C1205.25 278.345 1265.75 272.294 1314.14 244.056C1346.41 225.903 1378.67 223.886 1414.97 223.886C1416.99 223.886 1419 223.886 1423.04 223.886C1427.07 223.886 1431.1 223.886 1435.14 223.886C1439.17 223.886 1441.19 223.886 1445.22 221.869C1447.24 221.869 1451.27 219.852 1457.32 215.818C1459.34 215.818 1461.35 213.801 1463.37 211.784C1467.4 209.767 1473.45 207.75 1479.5 203.716C1481.52 201.699 1485.55 201.699 1489.58 199.682C1507.73 191.614 1525.88 181.529 1544.03 173.461C1546.05 173.461 1548.06 171.444 1548.06 171.444C1556.13 167.41 1564.2 163.376 1570.25 159.342C1576.3 157.325 1582.35 153.291 1590.41 153.291C1592.43 153.291 1594.44 153.291 1596.46 153.291C1606.54 153.291 1618.64 151.274 1628.73 149.257C1630.74 149.257 1630.74 149.257 1632.76 149.257C1640.83 147.24 1646.88 145.223 1652.92 143.206C1652.92 143.206 1654.94 143.206 1654.94 141.189L1771.9 66.5608C1771.9 62.5268 1775.93 60.5098 1781.98 60.5098C1784 60.5098 1786.02 58.4928 1788.03 58.4928C1796.1 56.4758 1804.17 54.4588 1806.18 52.4418L1816.27 46.3909C1816.27 46.3909 1818.28 46.3909 1818.28 44.3739L1856.6 20.17L1876.76 8.06805C1876.76 8.06805 1878.78 8.06805 1878.78 6.05106C1880.8 4.03407 1882.81 4.03407 1886.85 2.01708C1892.89 8.76176e-05 1898.94 8.81464e-05 1907.01 8.88516e-05C1911.04 8.92042e-05 1915.08 2.01708 1917.09 4.03407L1935.24 12.102C1937.26 14.119 1939.28 14.119 1941.29 16.136L2007.84 62.5268C2009.86 64.5438 2009.86 64.5438 2009.86 64.5438L2138.91 173.461C2140.93 175.478 2140.93 175.478 2142.95 177.495C2144.96 179.512 2144.96 179.512 2144.96 181.529L2163.11 203.716Z" fill="url(#paint1_linear)"/>
</g>
<g opacity="0.25">
<path d="M115.425 343.902L117.229 342.098L149.693 295.194L207.409 212.211C209.212 210.407 211.016 208.603 212.819 204.995L328.249 107.58L330.053 105.776L389.572 64.2844C391.375 62.4804 393.179 62.4804 394.982 60.6764L411.215 53.4605C427.447 48.0486 441.876 49.8525 452.697 55.2645L503.198 87.7362C503.198 87.7362 505.002 87.7362 505.002 89.5402L514.019 94.9521C517.627 98.5601 542.877 103.972 546.484 107.58L651.093 174.327C661.914 179.739 687.164 185.151 705.2 186.955C714.218 186.955 721.433 190.563 728.647 194.171C757.505 208.603 833.255 246.487 840.47 248.291C844.077 248.291 851.291 248.291 858.506 248.291C894.578 248.291 925.239 250.095 955.9 266.33C999.186 289.782 1053.29 295.194 1101.99 307.822C1112.81 309.626 1123.63 313.234 1134.46 316.842C1163.31 329.47 1193.97 342.098 1219.22 360.138C1239.06 374.569 1257.1 389.001 1276.94 401.629C1298.58 417.865 1322.03 434.101 1343.67 450.337C1349.08 453.945 1367.12 471.985 1374.33 471.985L1.79891 471.984L115.425 343.902Z" fill="url(#paint2_linear)"/>
<path opacity="0.3" d="M409.409 248.29L445.481 327.666L515.821 322.254L611.412 372.765L696.181 378.177L802.593 412.453L863.915 403.433L1055.1 473.788L-0.00649133 473.788L12.6186 459.356L106.406 369.157L205.603 304.214L241.675 266.33L324.64 226.643L409.409 248.29Z" fill="#FCFCFC"/>
<path opacity="0.3" d="M844.074 475.592L694.376 399.825L656.5 401.629L613.214 390.805L586.16 416.061L468.926 378.177L409.408 401.629L358.907 437.709L292.174 324.058L245.281 351.118L137.065 383.589L-0.00782559 473.788L844.074 475.592Z" fill="#FCFCFC"/>
<path opacity="0.3" d="M137.07 383.59L245.286 351.118L292.179 324.058L265.125 473.789L-0.00288174 473.789L137.07 383.59Z" fill="white"/>
<path opacity="0.3" d="M358.906 437.708L409.406 401.629L468.925 376.373L582.551 416.061C587.962 428.689 593.373 441.316 600.587 455.748C604.194 462.964 605.998 468.376 609.605 475.592L342.673 475.592L358.906 437.708Z" fill="#FCFCFC"/>
<path opacity="0.3" d="M656.5 401.629L694.375 399.825L844.074 475.593L730.447 475.593L656.5 401.629Z" fill="#FCFCFC"/>
<path opacity="0.3" d="M910.812 304.213L1055.1 473.788L1372.53 473.788L1332.85 444.924L1020.83 340.293L959.509 331.273L910.812 304.213Z" fill="white"/>
<path opacity="0.3" d="M566.33 251.898L640.277 214.015L710.617 251.898L791.779 286.174L849.494 334.881L863.923 403.433L802.6 412.453L696.188 378.177L611.42 372.765L515.829 322.254L566.33 251.898Z" fill="white"/>
<path opacity="0.3" d="M115.421 343.902L117.225 342.098L149.689 295.194L207.404 212.211L187.565 241.075C229.047 197.779 328.245 125.62 328.245 125.62L362.513 129.228L411.21 100.364L458.104 201.387L409.407 248.291L326.441 226.643L243.476 266.33L207.404 302.41L108.207 367.353L14.4197 457.553L1.79465 471.984L115.421 343.902Z" fill="white"/>
<path opacity="0.4" d="M194.788 232.055L189.377 241.075C230.859 197.779 330.057 125.62 330.057 125.62L362.522 129.228L411.219 100.364L458.112 201.387L526.649 188.759L566.328 251.898L640.275 214.015L710.615 251.899L791.777 286.174L851.296 334.882L910.814 304.214L961.315 331.274L1020.83 338.49C1020.83 338.49 1331.05 444.925 1332.85 444.925L1275.14 403.433C1255.3 389.001 1235.46 376.373 1217.42 361.941C1192.17 343.902 1161.51 331.274 1132.66 318.646C1121.83 315.038 1111.01 311.43 1100.19 309.626C1051.49 298.802 997.387 293.39 954.1 268.134C925.243 251.899 896.385 250.095 863.921 250.095C862.117 250.095 860.314 250.095 856.706 250.095C853.099 250.095 849.492 250.095 845.885 250.095C842.278 250.095 840.474 250.095 836.867 248.291C835.063 248.291 831.456 246.487 826.045 242.879C824.242 242.879 822.438 241.075 820.635 239.271C817.027 237.467 811.617 235.663 806.206 232.055C804.402 230.251 800.795 230.251 797.188 228.447C780.955 221.231 764.723 212.211 748.491 204.995C746.687 204.995 744.884 203.191 744.884 203.191C737.669 199.583 730.455 195.975 725.044 192.367C719.633 190.563 714.222 186.955 707.008 186.955C705.205 186.955 703.401 186.955 701.597 186.955C692.579 186.955 681.758 185.151 672.74 183.347C670.936 183.347 670.936 183.347 669.133 183.347C661.918 181.543 656.507 179.739 651.097 177.935C651.097 177.935 649.293 177.935 649.293 176.131L544.685 109.384C544.685 105.776 541.078 103.972 535.667 103.972C533.863 103.972 532.06 102.168 530.256 102.168C523.042 100.364 515.827 98.56 514.024 96.756L505.006 91.3441C505.006 91.3441 503.202 91.3441 503.202 89.5401L468.934 67.8923L450.898 57.0684C450.898 57.0684 449.094 57.0684 449.094 55.2644C447.291 53.4604 445.487 53.4604 441.88 51.6564C436.469 49.8525 431.058 49.8525 423.844 49.8525C420.237 49.8525 416.63 51.6564 414.826 53.4604L398.594 60.6764C396.79 62.4803 394.987 62.4803 393.183 64.2843L333.664 105.776C331.861 107.58 331.861 107.58 331.861 107.58L216.431 204.995C214.627 206.799 214.627 206.799 212.823 208.603C211.02 210.407 211.02 210.407 211.02 212.211L194.788 232.055Z" fill="url(#paint3_linear)"/>
</g>
<g opacity="0.5">
<path d="M1805.72 415.324L1806.55 414.492L1821.51 392.878L1848.11 354.637C1848.94 353.806 1849.77 352.974 1850.6 351.312L1903.8 306.42L1904.63 305.588L1932.06 286.468C1932.89 285.637 1933.72 285.637 1934.55 284.805L1942.03 281.48C1949.51 278.986 1956.16 279.817 1961.15 282.311L1984.42 297.275C1984.42 297.275 1985.25 297.275 1985.25 298.107L1989.4 300.601C1991.07 302.263 2002.7 304.757 2004.37 306.42L2052.57 337.179C2057.56 339.673 2069.19 342.167 2077.51 342.998C2081.66 342.998 2084.99 344.661 2088.31 346.324C2101.61 352.974 2136.52 370.432 2139.84 371.263C2141.5 371.263 2144.83 371.263 2148.15 371.263C2164.78 371.263 2178.91 372.095 2193.04 379.577C2212.98 390.384 2237.92 392.878 2260.36 398.697C2265.35 399.529 2270.33 401.191 2275.32 402.854C2288.62 408.673 2302.75 414.493 2314.38 422.806C2323.53 429.456 2331.84 436.107 2340.98 441.926C2350.95 449.408 2361.76 456.89 2371.73 464.372C2374.23 466.035 2382.54 474.348 2385.86 474.348L1753.36 474.348L1805.72 415.324Z" fill="url(#paint4_linear)"/>
<path opacity="0.3" d="M1941.2 371.263L1957.82 407.841L1990.23 405.347L2034.28 428.624L2073.35 431.118L2122.39 446.914L2150.65 442.757L2238.75 475.179L1752.52 475.179L1758.34 468.528L1801.56 426.962L1847.28 397.034L1863.9 379.576L1902.13 361.287L1941.2 371.263Z" fill="#FCFCFC"/>
<path opacity="0.3" d="M2141.5 476.01L2072.51 441.094L2055.06 441.926L2035.11 436.938L2022.64 448.576L1968.62 431.118L1941.19 441.926L1917.92 458.552L1887.17 406.178L1865.56 418.648L1815.69 433.612L1752.52 475.179L2141.5 476.01Z" fill="#FCFCFC"/>
<path opacity="0.3" d="M1815.69 433.612L1865.56 418.648L1887.17 406.178L1874.7 475.179L1752.52 475.179L1815.69 433.612Z" fill="white"/>
<path opacity="0.3" d="M1917.93 458.552L1941.2 441.925L1968.63 430.287L2020.99 448.576C2023.48 454.395 2025.98 460.214 2029.3 466.865C2030.96 470.19 2031.79 472.684 2033.46 476.01L1910.45 476.01L1917.93 458.552Z" fill="#FCFCFC"/>
<path opacity="0.3" d="M2055.06 441.925L2072.51 441.094L2141.5 476.01L2089.14 476.01L2055.06 441.925Z" fill="#FCFCFC"/>
<path opacity="0.3" d="M2172.26 397.033L2238.76 475.178L2385.04 475.178L2366.75 461.877L2222.96 413.66L2194.7 409.503L2172.26 397.033Z" fill="white"/>
<path opacity="0.3" d="M2013.51 372.925L2047.59 355.467L2080 372.925L2117.4 388.72L2144 411.166L2150.65 442.757L2122.39 446.913L2073.35 431.118L2034.29 428.624L1990.24 405.347L2013.51 372.925Z" fill="white"/>
<path opacity="0.3" d="M1805.73 415.323L1806.56 414.491L1821.52 392.877L1848.12 354.636L1838.97 367.937C1858.09 347.985 1903.8 314.732 1903.8 314.732L1919.59 316.395L1942.04 303.093L1963.65 349.648L1941.2 371.262L1902.97 361.286L1864.74 379.575L1848.12 396.202L1802.4 426.13L1759.18 467.696L1753.36 474.347L1805.73 415.323Z" fill="white"/>
<path opacity="0.4" d="M1842.29 363.781L1839.8 367.937C1858.92 347.985 1904.63 314.732 1904.63 314.732L1919.59 316.395L1942.03 303.094L1963.64 349.648L1995.23 343.829L2013.51 372.925L2047.59 355.467L2080 372.925L2117.4 388.72L2144.83 411.166L2172.26 397.034L2195.53 409.504L2222.96 412.829C2222.96 412.829 2365.92 461.877 2366.75 461.877L2340.15 442.757C2331.01 436.106 2321.87 430.287 2313.56 423.636C2301.92 415.323 2287.79 409.504 2274.49 403.684C2269.5 402.022 2264.52 400.359 2259.53 399.528C2237.09 394.54 2212.16 392.046 2192.21 380.407C2178.91 372.925 2165.61 372.094 2150.65 372.094C2149.82 372.094 2148.99 372.094 2147.33 372.094C2145.66 372.094 2144 372.094 2142.34 372.094C2140.68 372.094 2139.85 372.094 2138.18 371.263C2137.35 371.263 2135.69 370.431 2133.2 368.769C2132.36 368.769 2131.53 367.937 2130.7 367.106C2129.04 366.275 2126.55 365.443 2124.05 363.781C2123.22 362.949 2121.56 362.949 2119.9 362.118C2112.42 358.793 2104.94 354.636 2097.46 351.311C2096.63 351.311 2095.79 350.479 2095.79 350.479C2092.47 348.817 2089.15 347.154 2086.65 345.491C2084.16 344.66 2081.66 342.997 2078.34 342.997C2077.51 342.997 2076.68 342.997 2075.85 342.997C2071.69 342.997 2066.7 342.166 2062.55 341.335C2061.72 341.335 2061.72 341.335 2060.89 341.335C2057.56 340.503 2055.07 339.672 2052.57 338.841C2052.57 338.841 2051.74 338.841 2051.74 338.009L2003.54 307.25C2003.54 305.588 2001.87 304.756 1999.38 304.756C1998.55 304.756 1997.72 303.925 1996.89 303.925C1993.56 303.094 1990.24 302.262 1989.41 301.431L1985.25 298.937C1985.25 298.937 1984.42 298.937 1984.42 298.106L1968.63 288.13L1960.32 283.142C1960.32 283.142 1959.49 283.142 1959.49 282.31C1958.65 281.479 1957.82 281.479 1956.16 280.648C1953.67 279.816 1951.17 279.816 1947.85 279.816C1946.19 279.816 1944.53 280.648 1943.69 281.479L1936.21 284.804C1935.38 285.636 1934.55 285.636 1933.72 286.467L1906.29 305.588C1905.46 306.419 1905.46 306.419 1905.46 306.419L1852.27 351.311C1851.44 352.142 1851.44 352.142 1850.61 352.973C1849.77 353.805 1849.77 353.805 1849.77 354.636L1842.29 363.781Z" fill="url(#paint5_linear)"/>
</g>
<defs>
<linearGradient id="paint0_linear" x1="1613.95" y1="484.626" x2="1613.95" y2="12.5881" gradientUnits="userSpaceOnUse">
<stop stop-color="#C9CDD8"/>
<stop offset="1" stop-color="#F7F7F7"/>
</linearGradient>
<linearGradient id="paint1_linear" x1="1530.32" y1="451.495" x2="1530.32" y2="11.7268" gradientUnits="userSpaceOnUse">
<stop stop-color="#E5E5E5" stop-opacity="0.35"/>
<stop offset="1" stop-color="#E5E5E5"/>
</linearGradient>
<linearGradient id="paint2_linear" x1="685.945" y1="483.299" x2="685.945" y2="61.1112" gradientUnits="userSpaceOnUse">
<stop stop-color="#C9CDD8"/>
<stop offset="1" stop-color="#F7F7F7"/>
</linearGradient>
<linearGradient id="paint3_linear" x1="760.757" y1="453.667" x2="760.757" y2="60.3408" gradientUnits="userSpaceOnUse">
<stop stop-color="#E5E5E5" stop-opacity="0.35"/>
<stop offset="1" stop-color="#E5E5E5"/>
</linearGradient>
<linearGradient id="paint4_linear" x1="2068.63" y1="479.562" x2="2068.63" y2="285.006" gradientUnits="userSpaceOnUse">
<stop stop-color="#C9CDD8"/>
<stop offset="1" stop-color="#F7F7F7"/>
</linearGradient>
<linearGradient id="paint5_linear" x1="2103.11" y1="465.906" x2="2103.11" y2="284.65" gradientUnits="userSpaceOnUse">
<stop stop-color="#E5E5E5" stop-opacity="0.35"/>
<stop offset="1" stop-color="#E5E5E5"/>
</linearGradient>
</defs>
</svg>
